# Blender v3.0.1 OBJ File: 'PC.blend'
# www.blender.org
mtllib RAM.mtl
o RAM_Cube.190
v 0.582192 3.940066 -1.030690
v 0.740569 3.940066 -1.030690
v 0.582192 0.293938 -1.030690
v 0.740569 0.293938 -1.030690
v 0.582192 3.940066 -0.431578
v 0.740569 3.940066 -0.431578
v 0.740569 0.293938 -0.431578
v 0.582192 0.293938 -0.431578
v 0.740569 0.949692 -1.030690
v 0.740569 3.284311 -1.030690
v 0.582192 3.284311 -1.030690
v 0.582192 0.949692 -1.030690
v 0.582192 0.949692 -0.431578
v 0.582192 3.284311 -0.431578
v 0.740569 3.284311 -0.431578
v 0.740569 0.949692 -0.431578
v 0.221226 3.940066 -1.030689
v 0.379603 3.940066 -1.030689
v 0.221227 0.293938 -1.030689
v 0.379604 0.293938 -1.030689
v 0.221226 3.940066 -0.431578
v 0.379603 3.940066 -0.431578
v 0.379603 0.293938 -0.431578
v 0.221226 0.293938 -0.431578
v 0.379604 0.949692 -1.030689
v 0.379603 3.284311 -1.030689
v 0.221226 3.284311 -1.030689
v 0.221227 0.949692 -1.030689
v 0.221226 0.949692 -0.431578
v 0.221226 3.284311 -0.431578
v 0.379603 3.284311 -0.431578
v 0.379603 0.949692 -0.431578
v 0.221226 3.897666 -0.250777
v 0.379603 3.897666 -0.250777
v 0.221226 0.336337 -0.250777
v 0.379603 0.336337 -0.250777
v 0.221226 3.940066 -0.431578
v 0.379603 3.940066 -0.431578
v 0.379603 0.293938 -0.431578
v 0.221226 0.293938 -0.431578
v 0.379603 3.257163 -0.250777
v 0.379603 0.976841 -0.250777
v 0.221226 0.976841 -0.250777
v 0.221226 3.257163 -0.250777
v 0.221226 0.949692 -0.431578
v 0.221226 3.284311 -0.431578
v 0.379603 3.284311 -0.431578
v 0.379603 0.949692 -0.431578
v 0.582191 3.897666 -0.250777
v 0.740568 3.897666 -0.250777
v 0.582192 0.336337 -0.250777
v 0.740569 0.336337 -0.250777
v 0.582191 3.940066 -0.431578
v 0.740568 3.940066 -0.431578
v 0.740569 0.293938 -0.431578
v 0.582192 0.293938 -0.431578
v 0.740568 3.257163 -0.250777
v 0.740568 0.976841 -0.250777
v 0.582191 0.976841 -0.250777
v 0.582191 3.257163 -0.250777
v 0.582192 0.949692 -0.431578
v 0.582191 3.284311 -0.431578
v 0.740568 3.284311 -0.431578
v 0.740569 0.949692 -0.431578
v 0.943157 3.940066 -1.030690
v 1.101534 3.940066 -1.030690
v 0.943157 0.293938 -1.030690
v 1.101534 0.293938 -1.030690
v 0.943156 3.940066 -0.431578
v 1.101533 3.940066 -0.431578
v 1.101534 0.293938 -0.431578
v 0.943157 0.293938 -0.431578
v 1.101534 0.949692 -1.030690
v 1.101534 3.284311 -1.030690
v 0.943157 3.284311 -1.030690
v 0.943157 0.949692 -1.030690
v 0.943157 0.949692 -0.431578
v 0.943157 3.284311 -0.431578
v 1.101534 3.284311 -0.431578
v 1.101534 0.949692 -0.431578
v 0.943156 3.897666 -0.250777
v 1.101533 3.897666 -0.250777
v 0.943157 0.336337 -0.250777
v 1.101534 0.336337 -0.250777
v 0.943156 3.940066 -0.431578
v 1.101533 3.940066 -0.431578
v 1.101534 0.293938 -0.431578
v 0.943157 0.293938 -0.431578
v 1.101534 3.257163 -0.250777
v 1.101534 0.976841 -0.250777
v 0.943157 0.976841 -0.250777
v 0.943157 3.257163 -0.250777
v 0.943157 0.949692 -0.431578
v 0.943157 3.284311 -0.431578
v 1.101534 3.284311 -0.431578
v 1.101534 0.949692 -0.431578
v 1.304122 3.940066 -1.030690
v 1.462499 3.940066 -1.030690
v 1.304122 0.293938 -1.030690
v 1.462499 0.293938 -1.030690
v 1.304121 3.940066 -0.431578
v 1.462498 3.940066 -0.431578
v 1.462499 0.293938 -0.431578
v 1.304122 0.293938 -0.431578
v 1.462499 0.949692 -1.030690
v 1.462499 3.284311 -1.030690
v 1.304122 3.284311 -1.030690
v 1.304122 0.949692 -1.030690
v 1.304122 0.949692 -0.431578
v 1.304122 3.284311 -0.431578
v 1.462499 3.284311 -0.431578
v 1.462499 0.949692 -0.431578
v 1.304121 3.897666 -0.250777
v 1.462498 3.897666 -0.250777
v 1.304122 0.336337 -0.250777
v 1.462499 0.336337 -0.250777
v 1.304121 3.940066 -0.431578
v 1.462498 3.940066 -0.431578
v 1.462499 0.293938 -0.431578
v 1.304122 0.293938 -0.431578
v 1.462499 3.257163 -0.250777
v 1.462499 0.976841 -0.250777
v 1.304122 0.976841 -0.250777
v 1.304122 3.257163 -0.250777
v 1.304122 0.949692 -0.431578
v 1.304122 3.284311 -0.431578
v 1.462499 3.284311 -0.431578
v 1.462499 0.949692 -0.431578
vt 0.145629 0.053646
vt 0.145578 0.053646
vt 0.145578 0.052802
vt 0.145629 0.052802
vt 0.140552 0.050267
vt 0.140552 0.046829
vt 0.140603 0.046829
vt 0.140603 0.050267
vt 0.137785 0.046829
vt 0.137785 0.050267
vt 0.136939 0.050267
vt 0.136939 0.046829
vt 0.141117 0.050267
vt 0.141117 0.046829
vt 0.141168 0.046829
vt 0.141168 0.050267
vt 0.131868 0.050267
vt 0.131868 0.046829
vt 0.132713 0.046829
vt 0.132713 0.050267
vt 0.140886 0.050267
vt 0.140886 0.046829
vt 0.140937 0.046829
vt 0.140937 0.050267
vt 0.132056 0.437563
vt 0.132056 0.434124
vt 0.132237 0.434124
vt 0.132237 0.437563
vt 0.140321 0.050267
vt 0.140321 0.046829
vt 0.140371 0.046829
vt 0.140371 0.050267
vt 0.131491 0.437563
vt 0.131491 0.434124
vt 0.131672 0.434124
vt 0.131672 0.437563
vt 0.145860 0.053646
vt 0.145810 0.053646
vt 0.145810 0.052802
vt 0.145860 0.052802
vt 0.145629 0.052802
vt 0.145578 0.052802
vt 0.145578 0.051957
vt 0.145629 0.051957
vt 0.140835 0.053706
vt 0.140835 0.050267
vt 0.140886 0.050267
vt 0.140886 0.053706
vt 0.135249 0.046829
vt 0.135249 0.050267
vt 0.134404 0.050267
vt 0.134404 0.046829
vt 0.140552 0.057145
vt 0.140552 0.053706
vt 0.140603 0.053706
vt 0.140603 0.057145
vt 0.132713 0.050267
vt 0.132713 0.046829
vt 0.133558 0.046829
vt 0.133558 0.050267
vt 0.140321 0.057145
vt 0.140321 0.053706
vt 0.140371 0.053706
vt 0.140371 0.057145
vt 0.131491 0.444441
vt 0.131491 0.441002
vt 0.131672 0.441002
vt 0.131672 0.444441
vt 0.140603 0.053706
vt 0.140603 0.050267
vt 0.140654 0.050267
vt 0.140654 0.053706
vt 0.131773 0.441002
vt 0.131773 0.437563
vt 0.131954 0.437563
vt 0.131954 0.441002
vt 0.145860 0.052802
vt 0.145810 0.052802
vt 0.145810 0.051957
vt 0.145860 0.051957
vt 0.145728 0.047673
vt 0.145677 0.047673
vt 0.145677 0.046829
vt 0.145728 0.046829
vt 0.140552 0.053706
vt 0.140552 0.050267
vt 0.140603 0.050267
vt 0.140603 0.053706
vt 0.136939 0.046829
vt 0.136939 0.050267
vt 0.136094 0.050267
vt 0.136094 0.046829
vt 0.140835 0.057145
vt 0.140835 0.053706
vt 0.140886 0.053706
vt 0.140886 0.057145
vt 0.133558 0.050267
vt 0.133558 0.046829
vt 0.134404 0.046829
vt 0.134404 0.050267
vt 0.140603 0.057145
vt 0.140603 0.053706
vt 0.140654 0.053706
vt 0.140654 0.057145
vt 0.131773 0.444441
vt 0.131773 0.441002
vt 0.131954 0.441002
vt 0.131954 0.444441
vt 0.140321 0.053706
vt 0.140321 0.050267
vt 0.140371 0.050267
vt 0.140371 0.053706
vt 0.131491 0.441002
vt 0.131491 0.437563
vt 0.131672 0.437563
vt 0.131672 0.441002
vt 0.145960 0.047673
vt 0.145909 0.047673
vt 0.145909 0.046829
vt 0.145960 0.046829
vt 0.132204 0.061624
vt 0.132153 0.061624
vt 0.132153 0.060780
vt 0.132204 0.060780
vt 0.140835 0.050267
vt 0.140835 0.046829
vt 0.140886 0.046829
vt 0.140886 0.050267
vt 0.136094 0.046829
vt 0.136094 0.050267
vt 0.135249 0.050267
vt 0.135249 0.046829
vt 0.141117 0.053706
vt 0.141117 0.050267
vt 0.141168 0.050267
vt 0.141168 0.053706
vt 0.131023 0.050267
vt 0.131023 0.046829
vt 0.131868 0.046829
vt 0.131868 0.050267
vt 0.140886 0.053706
vt 0.140886 0.050267
vt 0.140937 0.050267
vt 0.140937 0.053706
vt 0.132056 0.441002
vt 0.132056 0.437563
vt 0.132237 0.437563
vt 0.132237 0.441002
vt 0.140603 0.050267
vt 0.140603 0.046829
vt 0.140654 0.046829
vt 0.140654 0.050267
vt 0.131773 0.437563
vt 0.131773 0.434124
vt 0.131954 0.434124
vt 0.131954 0.437563
vt 0.132436 0.061624
vt 0.132385 0.061624
vt 0.132385 0.060780
vt 0.132436 0.060780
vt 0.603586 0.572297
vt 0.603586 0.639669
vt 0.548715 0.639669
vt 0.548715 0.572297
vt 0.941578 0.400297
vt 0.941441 0.332925
vt 0.944663 0.332925
vt 0.944877 0.400297
vt 0.260250 0.600285
vt 0.260250 0.667658
vt 0.205379 0.667658
vt 0.205379 0.600285
vt 0.948018 0.134744
vt 0.947882 0.067372
vt 0.951104 0.067372
vt 0.951318 0.134744
vt 0.435482 0.914974
vt 0.438704 0.914974
vt 0.438704 0.969813
vt 0.435482 0.969813
vt 0.420787 0.914974
vt 0.424010 0.914974
vt 0.424010 0.969813
vt 0.420787 0.969813
vt 0.932974 0.134744
vt 0.933187 0.067372
vt 0.936410 0.067372
vt 0.936273 0.134744
vt 0.926533 0.400297
vt 0.926746 0.332925
vt 0.929969 0.332925
vt 0.929832 0.400297
vt 0.493843 0.150176
vt 0.493843 0.217549
vt 0.438971 0.217549
vt 0.438971 0.150176
vt 0.948018 0.202116
vt 0.947882 0.134744
vt 0.951104 0.134744
vt 0.951318 0.202116
vt 0.315122 0.600285
vt 0.315122 0.667658
vt 0.260250 0.667658
vt 0.260250 0.600285
vt 0.948019 0.290618
vt 0.947882 0.223246
vt 0.951104 0.223246
vt 0.951318 0.290618
vt 0.490354 0.914806
vt 0.493576 0.914806
vt 0.493576 0.969645
vt 0.490354 0.969645
vt 0.475659 0.914806
vt 0.478881 0.914806
vt 0.478881 0.969645
vt 0.475659 0.969645
vt 0.932974 0.290618
vt 0.933187 0.223246
vt 0.936410 0.223246
vt 0.936273 0.290618
vt 0.932974 0.202116
vt 0.933187 0.134744
vt 0.936410 0.134744
vt 0.936273 0.202116
vt 0.493843 0.564097
vt 0.493843 0.631470
vt 0.438971 0.631470
vt 0.438971 0.564097
vt 0.929675 0.786330
vt 0.929538 0.718958
vt 0.932761 0.718958
vt 0.932974 0.786330
vt 0.384100 0.579933
vt 0.384100 0.647305
vt 0.329229 0.647305
vt 0.329229 0.579933
vt 0.929675 0.853702
vt 0.929538 0.786330
vt 0.932761 0.786330
vt 0.932974 0.853702
vt 0.106413 0.905664
vt 0.109636 0.905664
vt 0.109636 0.960503
vt 0.106413 0.960503
vt 0.091719 0.905664
vt 0.094941 0.905664
vt 0.094941 0.960503
vt 0.091719 0.960503
vt 0.914630 0.853702
vt 0.914844 0.786330
vt 0.918066 0.786330
vt 0.917929 0.853702
vt 0.914630 0.786330
vt 0.914844 0.718958
vt 0.918066 0.718958
vt 0.917929 0.786330
vt 0.438971 0.573180
vt 0.438971 0.640552
vt 0.384100 0.640552
vt 0.384100 0.573180
vt 0.948019 0.513865
vt 0.947882 0.446493
vt 0.951104 0.446493
vt 0.951318 0.513865
vt 0.548714 0.597842
vt 0.548714 0.665214
vt 0.493843 0.665214
vt 0.493843 0.597842
vt 0.948018 0.067372
vt 0.947882 0.000000
vt 0.951104 0.000000
vt 0.951318 0.067372
vt 0.600097 0.920307
vt 0.603319 0.920307
vt 0.603319 0.975146
vt 0.600097 0.975146
vt 0.585402 0.920307
vt 0.588624 0.920307
vt 0.588624 0.975146
vt 0.585402 0.975146
vt 0.932974 0.067372
vt 0.933187 0.000000
vt 0.936410 0.000000
vt 0.936273 0.067372
vt 0.932974 0.513865
vt 0.933187 0.446493
vt 0.936410 0.446493
vt 0.936273 0.513865
vn 0.0000 0.0000 -1.0000
vn -1.0000 -0.0000 -0.0000
vn 0.0000 -1.0000 -0.0000
vn 1.0000 0.0000 0.0000
vn 0.0000 1.0000 0.0000
vn -0.0000 0.9736 0.2283
vn -0.0000 -0.9736 0.2283
vn -0.0000 -0.0000 1.0000
usemtl TexturaComp
s 1
f 9/1/1 4/2/1 3/3/1 12/4/1
f 11/5/2 14/6/2 5/7/2 1/8/2
f 4/9/3 7/10/3 8/11/3 3/12/3
f 9/13/4 16/14/4 7/15/4 4/16/4
f 1/17/5 5/18/5 6/19/5 2/20/5
f 2/21/4 6/22/4 15/23/4 10/24/4
f 10/25/4 15/26/4 16/27/4 9/28/4
f 3/29/2 8/30/2 13/31/2 12/32/2
f 12/33/2 13/34/2 14/35/2 11/36/2
f 2/37/1 10/38/1 11/39/1 1/40/1
f 10/38/1 9/1/1 12/4/1 11/39/1
f 25/41/1 20/42/1 19/43/1 28/44/1
f 27/45/2 30/46/2 21/47/2 17/48/2
f 20/49/3 23/50/3 24/51/3 19/52/3
f 25/53/4 32/54/4 23/55/4 20/56/4
f 17/57/5 21/58/5 22/59/5 18/60/5
f 18/61/4 22/62/4 31/63/4 26/64/4
f 26/65/4 31/66/4 32/67/4 25/68/4
f 19/69/2 24/70/2 29/71/2 28/72/2
f 28/73/2 29/74/2 30/75/2 27/76/2
f 18/77/1 26/78/1 27/79/1 17/80/1
f 26/78/1 25/41/1 28/44/1 27/79/1
f 73/81/1 68/82/1 67/83/1 76/84/1
f 75/85/2 78/86/2 69/87/2 65/88/2
f 68/89/3 71/90/3 72/91/3 67/92/3
f 73/93/4 80/94/4 71/95/4 68/96/4
f 65/97/5 69/98/5 70/99/5 66/100/5
f 66/101/4 70/102/4 79/103/4 74/104/4
f 74/105/4 79/106/4 80/107/4 73/108/4
f 67/109/2 72/110/2 77/111/2 76/112/2
f 76/113/2 77/114/2 78/115/2 75/116/2
f 66/117/1 74/118/1 75/119/1 65/120/1
f 74/118/1 73/81/1 76/84/1 75/119/1
f 105/121/1 100/122/1 99/123/1 108/124/1
f 107/125/2 110/126/2 101/127/2 97/128/2
f 100/129/3 103/130/3 104/131/3 99/132/3
f 105/133/4 112/134/4 103/135/4 100/136/4
f 97/137/5 101/138/5 102/139/5 98/140/5
f 98/141/4 102/142/4 111/143/4 106/144/4
f 106/145/4 111/146/4 112/147/4 105/148/4
f 99/149/2 104/150/2 109/151/2 108/152/2
f 108/153/2 109/154/2 110/155/2 107/156/2
f 98/157/1 106/158/1 107/159/1 97/160/1
f 106/158/1 105/121/1 108/124/1 107/159/1
usemtl Emis.Roxo
f 37/161/6 33/162/6 34/163/6 38/164/6
f 48/165/4 42/166/4 36/167/4 39/168/4
f 39/169/7 36/170/7 35/171/7 40/172/7
f 46/173/2 44/174/2 33/175/2 37/176/2
f 41/177/8 34/178/8 33/179/8 44/180/8
f 36/181/8 42/182/8 43/183/8 35/184/8
f 42/182/8 41/177/8 44/180/8 43/183/8
f 40/185/2 35/186/2 43/187/2 45/188/2
f 45/188/2 43/187/2 44/174/2 46/173/2
f 38/189/4 34/190/4 41/191/4 47/192/4
f 47/192/4 41/191/4 42/166/4 48/165/4
f 85/193/6 81/194/6 82/195/6 86/196/6
f 96/197/4 90/198/4 84/199/4 87/200/4
f 87/201/7 84/202/7 83/203/7 88/204/7
f 94/205/2 92/206/2 81/207/2 85/208/2
f 89/209/8 82/210/8 81/211/8 92/212/8
f 84/213/8 90/214/8 91/215/8 83/216/8
f 90/214/8 89/209/8 92/212/8 91/215/8
f 88/217/2 83/218/2 91/219/2 93/220/2
f 93/220/2 91/219/2 92/206/2 94/205/2
f 86/221/4 82/222/4 89/223/4 95/224/4
f 95/224/4 89/223/4 90/198/4 96/197/4
usemtl Ems.Azul
f 53/225/6 49/226/6 50/227/6 54/228/6
f 64/229/4 58/230/4 52/231/4 55/232/4
f 55/233/7 52/234/7 51/235/7 56/236/7
f 62/237/2 60/238/2 49/239/2 53/240/2
f 57/241/8 50/242/8 49/243/8 60/244/8
f 52/245/8 58/246/8 59/247/8 51/248/8
f 58/246/8 57/241/8 60/244/8 59/247/8
f 56/249/2 51/250/2 59/251/2 61/252/2
f 61/252/2 59/251/2 60/238/2 62/237/2
f 54/253/4 50/254/4 57/255/4 63/256/4
f 63/256/4 57/255/4 58/230/4 64/229/4
f 117/257/6 113/258/6 114/259/6 118/260/6
f 128/261/4 122/262/4 116/263/4 119/264/4
f 119/265/7 116/266/7 115/267/7 120/268/7
f 126/269/2 124/270/2 113/271/2 117/272/2
f 121/273/8 114/274/8 113/275/8 124/276/8
f 116/277/8 122/278/8 123/279/8 115/280/8
f 122/278/8 121/273/8 124/276/8 123/279/8
f 120/281/2 115/282/2 123/283/2 125/284/2
f 125/284/2 123/283/2 124/270/2 126/269/2
f 118/285/4 114/286/4 121/287/4 127/288/4
f 127/288/4 121/287/4 122/262/4 128/261/4
