# Blender v3.0.1 OBJ File: 'PC.blend'
# www.blender.org
mtllib HDD.mtl
o HDD_Cube.232
v 2.416163 -0.225689 -1.419839
v 2.445407 -0.078520 -1.437202
v 2.416163 -0.225689 -1.564492
v 2.445407 -0.078520 -1.547129
v 2.916596 -0.225689 -1.419839
v 2.887352 -0.078520 -1.437202
v 2.916596 -0.225689 -1.564492
v 2.887352 -0.078520 -1.547129
v 2.416163 -0.078520 -1.419839
v 2.416163 -0.078520 -1.564492
v 2.916596 -0.078520 -1.564492
v 2.916596 -0.078520 -1.419839
v 2.445407 -0.136689 -1.437202
v 2.445407 -0.136689 -1.547129
v 2.887352 -0.136689 -1.547129
v 2.887352 -0.136689 -1.437202
v 2.322186 -0.162031 -1.576598
v 2.322186 -0.162031 -1.052377
v 3.765590 -0.162031 -1.576598
v 3.765590 -0.162031 -1.052378
v 2.322186 -1.540002 -1.576598
v 2.322186 -1.540002 -1.052377
v 3.765590 -1.540002 -1.576598
v 3.765590 -1.540002 -1.052378
vt 0.298790 0.190194
vt 0.304798 0.190194
vt 0.304798 0.196202
vt 0.298790 0.196202
vt 0.304798 0.202209
vt 0.298790 0.202209
vt 0.304798 0.208217
vt 0.298790 0.208217
vt 0.304798 0.214225
vt 0.298790 0.214225
vt 0.292783 0.202209
vt 0.292783 0.208217
vt 0.310806 0.202209
vt 0.310806 0.208217
vt 0.056711 0.189248
vt 0.062231 0.189248
vt 0.062231 0.194768
vt 0.056711 0.194768
vt 0.062231 0.200288
vt 0.056711 0.200288
vt 0.062231 0.205808
vt 0.056711 0.205808
vt 0.062231 0.211328
vt 0.056711 0.211328
vt 0.051191 0.200288
vt 0.051191 0.205808
vt 0.137913 0.055844
vt 0.133039 0.055844
vt 0.133039 0.055844
vt 0.137913 0.055844
vt 0.067429 0.205700
vt 0.067429 0.200396
vt 0.067751 0.200288
vt 0.067751 0.205808
vt 0.062554 0.200396
vt 0.062554 0.205700
vt 0.133039 0.050540
vt 0.137913 0.050540
vt 0.133039 0.050540
vt 0.137913 0.050540
vn -0.0000 1.0000 0.0000
vn 1.0000 0.0000 0.0000
vn 0.0000 -1.0000 0.0000
vn -1.0000 -0.0000 0.0000
vn -0.0000 -0.0000 -1.0000
vn 0.0000 0.0000 1.0000
usemtl TexturaComp
s 1
f 17/1/1 18/2/1 20/3/1 19/4/1
f 19/4/2 20/3/2 24/5/2 23/6/2
f 23/6/3 24/5/3 22/7/3 21/8/3
f 21/8/4 22/7/4 18/9/4 17/10/4
f 19/11/5 23/6/5 21/8/5 17/12/5
f 24/5/6 20/13/6 18/14/6 22/7/6
usemtl Detail1
f 1/15/4 9/16/4 10/17/4 3/18/4
f 3/18/5 10/17/5 11/19/5 7/20/5
f 7/20/2 11/19/2 12/21/2 5/22/2
f 5/22/6 12/21/6 9/23/6 1/24/6
f 3/25/3 7/20/3 5/22/3 1/26/3
f 2/27/5 6/28/5 16/29/5 13/30/5
f 2/31/1 4/32/1 10/33/1 9/34/1
f 4/32/1 8/35/1 11/19/1 10/33/1
f 8/35/1 6/36/1 12/21/1 11/19/1
f 6/36/1 2/31/1 9/34/1 12/21/1
f 15/37/1 14/38/1 13/30/1 16/29/1
f 8/39/6 4/40/6 14/38/6 15/37/6
f 6/28/4 8/39/4 15/37/4 16/29/4
f 4/40/2 2/27/2 13/30/2 14/38/2
