# Blender v3.0.1 OBJ File: 'PC.blend'
# www.blender.org
mtllib CPU.mtl
o CPU_Cube.002
v -1.487624 1.532490 -1.120396
v -1.487624 2.592889 -1.120396
v -1.560032 1.448808 -1.187402
v -1.560032 2.676571 -1.187402
v -0.570099 1.532490 -1.120396
v -0.570099 2.592889 -1.120396
v -0.497692 1.448808 -1.187402
v -0.497692 2.676571 -1.187402
v -1.560032 1.448808 -1.120396
v -1.560032 2.676571 -1.120396
v -0.497692 2.676571 -1.120396
v -0.497692 1.448808 -1.120396
v -1.487624 1.532490 -1.120396
v -1.487624 2.592889 -1.120396
v -0.570099 2.592889 -1.120396
v -0.570099 1.532490 -1.120396
v -1.487624 1.532490 -1.050220
v -1.487624 2.592889 -1.050220
v -0.570099 2.592889 -1.050220
v -0.570099 1.532490 -1.050220
vt 0.298135 0.478548
vt 0.308861 0.478548
vt 0.308861 0.489274
vt 0.298135 0.489274
vt 0.375000 0.250000
vt 0.625000 0.250000
vt 0.625000 0.500000
vt 0.375000 0.500000
vt 0.298135 0.500000
vt 0.308861 0.500000
vt 0.308861 0.510726
vt 0.298135 0.510726
vt 0.392040 0.982960
vt 0.392040 0.767040
vt 0.392040 0.767040
vt 0.392040 0.982960
vt 0.287409 0.500000
vt 0.287409 0.510726
vt 0.319587 0.500000
vt 0.319587 0.510726
vt 0.298866 0.520721
vt 0.308130 0.520721
vt 0.308861 0.521452
vt 0.298135 0.521452
vt 0.308130 0.511457
vt 0.298866 0.511457
vt 0.607960 0.982960
vt 0.607960 0.982960
vt 0.607960 0.767040
vt 0.607960 0.767040
vt 0.955772 0.130768
vt 0.933061 0.130768
vt 0.933061 0.130768
vt 0.955772 0.130768
vt 0.933061 0.108057
vt 0.955772 0.108057
vt 0.955772 0.108057
vt 0.933061 0.108057
vn -1.0000 0.0000 0.0000
vn 0.0000 0.0000 -1.0000
vn 1.0000 0.0000 0.0000
vn 0.0000 0.0000 1.0000
vn 0.0000 -1.0000 0.0000
vn 0.0000 1.0000 0.0000
usemtl TexturaComp
s off
f 9/1/1 10/2/1 4/3/1 3/4/1
f 3/5/2 4/6/2 8/7/2 7/8/2
f 7/9/3 8/10/3 11/11/3 12/12/3
f 1/13/4 5/14/4 16/15/4 13/16/4
f 3/17/5 7/9/5 12/12/5 9/18/5
f 8/10/6 4/19/6 10/20/6 11/11/6
f 1/21/4 2/22/4 10/23/4 9/24/4
f 6/25/4 5/26/4 12/12/4 11/11/4
f 5/26/4 1/21/4 9/24/4 12/12/4
f 2/22/4 6/25/4 11/11/4 10/23/4
f 2/27/4 1/13/4 13/16/4 14/28/4
f 6/29/4 2/27/4 14/28/4 15/30/4
f 5/14/4 6/29/4 15/30/4 16/15/4
usemtl Detail2
f 14/31/1 13/32/1 17/33/1 18/34/1
f 20/35/4 19/36/4 18/34/4 17/33/4
f 15/37/6 14/31/6 18/34/6 19/36/6
f 16/38/3 15/37/3 19/36/3 20/35/3
f 13/32/5 16/38/5 20/35/5 17/33/5
